<?xml version="1.0" encoding="utf-8"?>
<!-- Generator: Adobe Illustrator 27.5.0, SVG Export Plug-In . SVG Version: 6.00 Build 0)  -->
<svg version="1.1" id="Capa_1" xmlns="http://www.w3.org/2000/svg" xmlns:xlink="http://www.w3.org/1999/xlink" x="0px" y="0px"
	 viewBox="0 0 2122 2122" style="enable-background:new 0 0 2122 2122;" xml:space="preserve">
<g>
	<path style="fill:#FFD151;" d="M1556.625,594.345c-44.42-133.286-162.294-225.366-308.054-258.971l0.055-0.046
		c-0.717-0.165-1.451-0.297-2.171-0.46c-5.024-1.136-10.077-2.214-15.165-3.211c-0.781-0.153-1.559-0.313-2.343-0.463
		c-5.705-1.092-11.447-2.096-17.225-3.011c-0.805-0.127-1.614-0.244-2.419-0.368c-5.835-0.898-11.697-1.725-17.601-2.44l-0.27-0.035
		c-5.941-0.717-11.923-1.318-17.929-1.849c-0.985-0.087-1.969-0.174-2.956-0.256c-5.928-0.492-11.881-0.908-17.866-1.217
		c-0.576-0.03-1.155-0.048-1.731-0.075c-5.725-0.279-11.475-0.47-17.246-0.58c-0.739-0.014-1.476-0.038-2.216-0.05
		c-5.973-0.091-11.97-0.079-17.986,0.013c-1.086,0.017-2.173,0.042-3.259,0.064c-6.14,0.128-12.294,0.323-18.473,0.644l-0.086,0.006
		c-6.119,0.319-12.262,0.761-18.415,1.27c-1.095,0.091-2.19,0.175-3.288,0.272c-6.022,0.531-12.057,1.15-18.106,1.866
		c-1.026,0.121-2.055,0.258-3.082,0.385c-5.798,0.716-11.606,1.506-17.424,2.393c-0.562,0.086-1.122,0.159-1.683,0.246
		c-6.103,0.948-12.218,2.014-18.336,3.152c-1.271,0.236-2.54,0.475-3.811,0.72c-6.088,1.171-12.182,2.418-18.28,3.78
		c-0.75,0.167-1.499,0.352-2.249,0.523c-5.682,1.29-11.366,2.672-17.053,4.129c-1.07,0.274-2.137,0.536-3.206,0.815
		c-6.03,1.579-12.059,3.261-18.088,5.03c-1.269,0.373-2.538,0.757-3.807,1.138c-6.207,1.863-12.414,3.792-18.615,5.859
		C652.77,444.755,491.616,700.294,566.296,924.381c32.049,96.171,97.991,190.788,184.425,260.294l-0.019,0.008
		c0,0,84.327,65.569,140.052,164.096c-15.578,12.459-25.6,36.67-21.279,57.507c3.601,17.368,16.255,34.108,29.83,45.079
		c5.095,4.117,10.661,7.446,16.481,10.3c-0.436,0.435-0.837,0.885-1.192,1.363c-14.057,7.593-24.262,21.972-25.734,38.716
		c-2.36,26.845,15.927,55.842,38.436,69.36c4.69,2.817,9.68,4.927,14.827,6.485c0.403,1.247,0.95,2.538,1.615,3.794
		c-3.718,7.036-6.02,14.855-6.578,22.878c-1.225,17.657,5.852,34.211,15.672,48.522c10.558,15.389,24.537,28.017,41.413,36.108
		c13.682,6.559,28.588,9.962,43.65,11.581c7.388,27.925,18.614,54.557,37.506,76.09c7.06,8.048,15.262,15.357,25.057,19.679
		c9.795,4.322,21.373,5.38,31.19,1.109c14.177-6.166,21.734-21.535,27.023-36.061c9.648-26.508,15.616-54.162,18.928-82.201
		c12.699-5.829,24.818-12.917,35.952-21.376c14.772-11.221,29.492-25.089,36.684-42.548c9.134-22.173,1.619-43.953-13.884-61.153
		c-5.005-5.553-10.673-9.749-16.782-12.991c-1.544-3.739-4.392-7.593-7.485-9.265c5.766-3.989,11.397-8.173,16.701-12.786
		c12.111-10.534,24.319-22.844,32.56-36.73c4.102-6.913,6.858-14.823,4.895-22.892c-1.961-8.058-7.202-15.624-12.661-21.731
		c-2.297-2.571-4.771-4.611-7.362-6.304c-0.428-2.489-2.25-3.901-4.489-4.527c5.623-4.986,10.7-10.595,15.048-16.794
		c9.51-13.561,18.116-32.114,15.228-49.017c0,0-0.897-30.517-31.516-42.723c17.626-53.659,45.987-111.896,91.538-156.002
		c103.237-99.959,193.938-190.484,232.16-366.443C1577.992,723.938,1576.561,654.171,1556.625,594.345z"/>
	<path style="fill:#8C98CD;" d="M1253.581,1437.616c-2.297-2.571-4.771-4.611-7.362-6.304c-0.428-2.489-2.25-3.901-4.489-4.527
		c5.623-4.986,10.7-10.595,15.048-16.794c9.51-13.561,18.116-32.114,15.228-49.017c0,0-0.897-30.517-31.516-42.723
		c-4.75-1.894-10.192-3.362-16.483-4.19c0,0-38.599,23.386-118.752,32.77c-3.936,0.461-8.012,0.873-12.151,1.26
		c-6.499,0.608-13.248,1.118-20.247,1.518c-3.782,0.216-7.625,0.404-11.553,0.553c-6.493,0.245-13.188,0.392-20.077,0.436
		c-4.345,0.026-8.743,0.026-13.245-0.035c-10.992-0.148-22.496-0.596-34.435-1.333v0c-11.454-0.707-23.357-1.716-35.688-3.045
		c-1.043-0.113-2.102-0.237-3.151-0.355c-4.81-0.537-9.699-1.135-14.645-1.776c-1.533-0.199-3.057-0.391-4.602-0.601
		c-6.057-0.821-12.186-1.698-18.447-2.685c-9.413-1.482-18.519,1.821-26.259,8.011c-15.578,12.459-25.6,36.67-21.279,57.507
		c3.601,17.368,16.255,34.108,29.83,45.079c5.095,4.117,10.661,7.446,16.481,10.3c-0.436,0.435-0.837,0.885-1.192,1.363
		c-14.057,7.593-24.262,21.972-25.734,38.716c-2.36,26.845,15.927,55.842,38.436,69.36c4.69,2.817,9.68,4.927,14.827,6.485
		c0.403,1.247,0.95,2.538,1.615,3.794c-3.718,7.036-6.02,14.855-6.578,22.878c-1.225,17.657,5.852,34.211,15.672,48.522
		c10.558,15.389,24.537,28.017,41.413,36.108c13.682,6.559,28.588,9.962,43.65,11.581c7.388,27.925,18.614,54.557,37.506,76.09
		c7.06,8.048,15.262,15.357,25.057,19.679c9.795,4.322,21.373,5.38,31.19,1.109c14.177-6.166,21.734-21.535,27.023-36.061
		c9.648-26.508,15.616-54.162,18.928-82.201c12.699-5.829,24.818-12.917,35.952-21.376c14.772-11.221,29.492-25.089,36.684-42.548
		c9.134-22.173,1.619-43.953-13.884-61.153c-5.005-5.553-10.673-9.749-16.782-12.991c-1.544-3.739-4.392-7.593-7.485-9.265
		c5.766-3.989,11.397-8.173,16.701-12.786c12.111-10.534,24.319-22.844,32.56-36.73c4.102-6.913,6.858-14.823,4.895-22.892
		C1264.281,1451.288,1259.04,1443.722,1253.581,1437.616z"/>
	<path style="fill:#F9B233;" d="M1440.118,633.173c-36.844-110.562-153.658-183.444-300.176-188.789l-0.087,0.11l-0.134-0.114
		l0.221,0.005c28.149-34.603,59.273-66.877,93.312-96.246c5.055-4.361,10.216-8.582,15.372-12.809
		c-5.733-1.322-11.519-2.531-17.335-3.671c-0.781-0.153-1.559-0.313-2.343-0.463c-5.705-1.092-11.447-2.096-17.225-3.011
		c-0.805-0.127-1.614-0.244-2.419-0.368c-5.835-0.898-11.697-1.725-17.601-2.44l-0.27-0.035c-5.941-0.717-11.923-1.318-17.929-1.849
		c-0.985-0.087-1.969-0.174-2.956-0.256c-5.928-0.492-11.881-0.908-17.866-1.217c-0.576-0.03-1.155-0.048-1.731-0.075
		c-5.725-0.279-11.475-0.47-17.246-0.58c-0.739-0.014-1.476-0.038-2.216-0.05c-5.973-0.091-11.97-0.079-17.986,0.013
		c-1.086,0.017-2.173,0.042-3.259,0.064c-6.14,0.128-12.294,0.323-18.473,0.644l-0.086,0.006c-6.119,0.319-12.262,0.761-18.415,1.27
		c-1.095,0.091-2.19,0.175-3.288,0.272c-6.022,0.531-12.057,1.15-18.106,1.866c-1.026,0.121-2.055,0.258-3.082,0.385
		c-5.798,0.716-11.606,1.506-17.424,2.393c-0.562,0.086-1.122,0.159-1.683,0.246c-6.103,0.948-12.218,2.014-18.336,3.152
		c-1.271,0.236-2.54,0.475-3.811,0.72c-6.088,1.171-12.182,2.418-18.28,3.78c-0.75,0.167-1.499,0.352-2.249,0.523
		c-5.682,1.29-11.366,2.672-17.053,4.129c-1.07,0.274-2.137,0.536-3.206,0.815c-6.03,1.579-12.059,3.261-18.088,5.03
		c-1.269,0.373-2.538,0.757-3.807,1.138c-6.207,1.863-12.414,3.792-18.615,5.859C652.77,444.755,491.616,700.294,566.296,924.381
		c32.049,96.171,97.991,190.788,184.425,260.294l-0.019,0.008c0,0,84.327,65.569,140.052,164.096
		c7.74-6.191,16.846-9.494,26.259-8.011c6.261,0.987,12.39,1.864,18.447,2.685c1.546,0.21,3.069,0.402,4.602,0.601
		c4.946,0.642,9.835,1.239,14.645,1.776c1.049,0.118,2.108,0.242,3.151,0.355c12.331,1.329,24.234,2.337,35.688,3.045v0
		c11.939,0.737,23.443,1.185,34.435,1.333c4.503,0.061,8.901,0.061,13.245,0.035c6.89-0.044,13.584-0.191,20.077-0.436
		c3.928-0.149,7.771-0.337,11.553-0.553c7-0.4,13.749-0.909,20.247-1.518c4.139-0.387,8.214-0.799,12.151-1.26
		c18.4-82.222,57.67-191.781,141.349-272.806c102.858-99.591,167.532-167.625,197.26-302.816
		C1453.853,718.219,1452.565,670.516,1440.118,633.173z"/>
	<path style="fill:#FFFFFF;" d="M1489.195,827.314c-1.841,5.061,1.827,9.822,6.312,11.963c3.73,1.781,11.426,2.454,13.27-2.617
		c26.638-73.237,27.574-155.219,2.388-229.016c-23.412-68.599-68.855-128.309-128.011-170.113
		c-32.667-23.085-69.051-40.562-107.554-51.423c-4.384-1.237-10.597,0.471-11.118,5.704c-0.544,5.473,5.003,9.539,9.614,10.839
		c63.173,17.821,119.894,55.668,161.619,106.221c45.378,54.98,70.826,124.777,72.871,195.969
		C1509.781,746.446,1503.429,788.18,1489.195,827.314z"/>
	<path style="fill:#FFFFFF;" d="M1221.093,1351.429c-5.173,0.716-10.297,4.391-9.886,10.142c0.76,10.656,1.52,21.312,2.28,31.967
		c0.388,5.448,6.774,8.658,11.703,7.975c5.173-0.715,10.295-4.39,9.886-10.142c-0.76-10.656-1.52-21.311-2.279-31.967
		C1232.407,1353.957,1226.021,1350.747,1221.093,1351.429z"/>
	<path style="fill:#FFFFFF;" d="M1204.048,1592.956c-2.522,0.394-5.071,0.796-7.536,1.468c-0.674,0.184-2.803,0.47-3.025,1.245
		c-4.441,15.486-13.823,29.284-26.7,38.981c-0.93,0.699,0.924,0.661,1.208,0.672c2.113,0.092,4.405-0.208,6.486-0.472
		c2.762-0.352,5.529-0.76,8.248-1.363c1.463-0.325,3.623-0.487,4.831-1.397c13.127-9.885,22.846-23.871,27.378-39.675
		C1215.103,1591.842,1204.836,1592.832,1204.048,1592.956z"/>
	<path style="fill:#FFFFFF;" d="M1221.221,1468.307c-2.522,0.394-5.071,0.796-7.536,1.468c-0.673,0.184-2.803,0.47-3.025,1.245
		c-4.441,15.486-13.824,29.284-26.7,38.981c-0.929,0.7,0.924,0.661,1.208,0.673c2.113,0.092,4.405-0.208,6.486-0.473
		c2.762-0.351,5.529-0.76,8.249-1.363c1.463-0.324,3.623-0.487,4.831-1.396c13.126-9.885,22.846-23.871,27.378-39.675
		C1232.277,1467.194,1222.009,1468.184,1221.221,1468.307z"/>
	<path style="fill:#FFE094;" d="M1440.118,633.173c-36.844-110.562-153.658-183.444-300.176-188.789l-0.087,0.11l-0.134-0.114
		c-5.673-0.206-11.374-0.345-17.132-0.345c-52.573,0-105.571,8.779-157.519,26.089c-105.413,35.131-192.594,100.663-245.483,184.528
		C671.6,730.74,658.537,812.743,682.8,885.554c25.147,75.459,77.953,149.603,144.878,203.423l0.523,0.42
		c17.046,13.503,85.058,70.143,143.306,156.511c5.659,34.804,12.949,69.315,22.039,103.321v0
		c11.939,0.737,23.443,1.185,34.435,1.333c4.503,0.061,8.901,0.061,13.245,0.035c6.89-0.044,13.584-0.191,20.077-0.436
		c3.928-0.149,7.771-0.337,11.553-0.553c7-0.4,13.749-0.909,20.247-1.518c4.139-0.387,8.214-0.799,12.151-1.26
		c18.4-82.222,57.67-191.781,141.349-272.806c102.858-99.591,167.532-167.625,197.26-302.816
		C1453.853,718.219,1452.565,670.516,1440.118,633.173z"/>
	<path style="fill:#FFD151;" d="M1351.975,697.167c-4.298-19.369-18.636-35.38-37.007-42.563
		c-19.36-7.571-40.402-5.928-59.225,2.351c-19.709,8.667-35.812,24.17-50.174,39.842c-28.95,31.591-51.558,68.466-69.016,107.497
		c-20.419,45.65-33.134,93.775-41.188,142.826c-15.904,5.317-32.073,9.811-48.425,13.537c-7.365-37.753-16.837-75.033-28.893-111.36
		c-8.739-26.332-20.227-52.615-36.769-74.957c8.323-36.758,18.839-73.015,32.07-108.474
		c30.006-80.417,72.722-155.229,126.507-221.373l-0.134-0.114c-5.673-0.206-11.374-0.345-17.132-0.345
		c-52.573,0-105.571,8.779-157.519,26.089c-105.413,35.131-192.594,100.663-245.483,184.528
		C671.6,730.74,658.537,812.743,682.8,885.554c25.147,75.459,77.953,149.603,144.878,203.423l0.523,0.42
		c17.046,13.503,85.058,70.143,143.306,156.511c5.659,34.804,12.949,69.315,22.039,103.321v0
		c11.939,0.737,23.443,1.185,34.435,1.333c-15.63-38.368-35.421-73.436-56.475-104.654c-8.69-53.446-13.653-107.541-15.477-161.451
		c-1.038-30.648-1.203-61.436-0.415-92.225c25.621-1.028,51.318-4.217,76.395-8.882c5.065,29.582,8.907,59.374,11.638,89.265
		c8.446,92.447,6.431,185.644-2.42,277.982c6.89-0.044,13.584-0.191,20.077-0.436c6.624-71.572,9.156-143.52,5.824-215.352
		c-2.397-51.686-7.644-103.783-16.667-155.146l1.347-0.275c13.566-2.945,27.001-6.495,40.281-10.531
		c-4.968,36.385-7.641,73.152-9.134,109.695c-3.688,90.276-0.498,181.118-10.098,271.057c7-0.4,13.749-0.909,20.247-1.518
		c5.547-57.141,6.415-114.844,7.251-172.174c1.04-71.362,2.185-143.452,13.183-214.073c62.605-22.205,120.4-57.132,166.297-105.887
		c27.468-29.178,52.205-64.096,66.162-101.915C1352.656,736.004,1356.192,716.175,1351.975,697.167z M986.776,970.974
		c-10.078,1.172-20.307,2.175-30.596,2.871c2.324-59.638,8.61-119.159,20.359-177.526c2.552,4.301,4.936,8.694,7.138,13.147
		c9.259,18.719,15.82,38.701,21.718,58.691c6.616,22.427,12.4,45.099,17.419,67.936c2.073,9.438,3.979,18.911,5.782,28.403
		C1014.737,967.155,1000.786,969.343,986.776,970.974z M1327.715,742.318c-6.262,17.821-15.72,34.651-25.921,50.489
		c-43.393,67.372-110.116,117.338-184.335,146.338c2.704-14.361,5.809-28.659,9.511-42.859
		c10.261-39.364,24.491-77.949,44.137-113.631c9.775-17.752,20.846-34.799,33.267-50.814c12.279-15.831,25.792-31.5,41.488-44.048
		c14.658-11.716,32.204-21.038,51.452-20.224c15.701,0.664,29.549,8.395,34.558,23.89
		C1337.212,707.972,1333.306,726.406,1327.715,742.318z"/>
	<path style="fill:#6D7FBE;" d="M1246.219,1431.312c-0.428-2.489-2.25-3.901-4.489-4.527c-1.993-0.557-4.268-0.535-6.106-0.085
		c-67.625,16.538-136.679,26.642-206.169,30.24c-14.224-35.114-26.124-71.109-35.909-107.711v0
		c-11.454-0.707-23.357-1.716-35.688-3.045c-1.043-0.113-2.102-0.237-3.151-0.355c-4.81-0.537-9.699-1.135-14.645-1.776
		c-1.533-0.199-3.057-0.391-4.602-0.601c-6.057-0.821-12.186-1.698-18.447-2.685c-9.413-1.482-18.519,1.821-26.259,8.011
		c-15.578,12.459-25.6,36.67-21.279,57.507c3.601,17.368,16.255,34.108,29.83,45.079c5.095,4.117,10.661,7.446,16.481,10.3
		c-0.436,0.435-0.837,0.885-1.192,1.363c-14.057,7.593-24.262,21.972-25.734,38.716c-2.36,26.845,15.927,55.842,38.436,69.36
		c4.69,2.817,9.68,4.927,14.827,6.485c0.403,1.247,0.95,2.538,1.615,3.794c-3.718,7.036-6.02,14.855-6.578,22.878
		c-1.225,17.657,5.852,34.211,15.672,48.522c10.558,15.389,24.537,28.017,41.413,36.108c13.682,6.559,28.588,9.962,43.65,11.581
		c7.388,27.925,18.614,54.557,37.506,76.09c7.06,8.048,15.262,15.357,25.057,19.679c9.795,4.322,21.373,5.38,31.19,1.109
		c14.177-6.166,21.734-21.535,27.023-36.061c9.648-26.508,15.616-54.162,18.928-82.201c-2.692,1.236-5.45,2.316-8.189,3.441
		c-29.487-31.46-55.315-66.833-77.246-102.119c23.163-3.596,46.18-8.153,68.933-13.861c19.4-4.866,38.607-10.494,57.584-16.803
		c2.698-0.896,2.535-4.742,0.888-8.727c-1.544-3.739-4.392-7.593-7.485-9.265c-1.506-0.815-3.065-1.118-4.549-0.624
		c-41.295,13.729-83.749,23.885-126.76,30.405c-7.152-12.257-13.876-24.431-20.026-36.322
		c-8.931-17.268-17.115-34.854-24.747-52.656c44.228-2.714,88.3-7.935,131.949-15.78c22.965-4.128,45.788-8.995,68.452-14.539
		c4.462-1.091,10.299-5.097,9.951-10.319L1246.219,1431.312z"/>
	<path style="fill:#5B1F10;" d="M1054.025,1701.594c-5.365-0.181-10.756-0.545-16.129-1.122
		c7.387,27.925,18.614,54.557,37.506,76.09c7.06,8.048,15.262,15.357,25.057,19.679c9.795,4.322,21.373,5.38,31.19,1.109
		c14.177-6.166,21.734-21.535,27.023-36.061c9.648-26.508,15.616-54.162,18.928-82.201c-4.283,1.966-8.631,3.793-13.031,5.476
		C1129.569,1697.952,1091.356,1702.852,1054.025,1701.594z"/>
	<path style="fill:#5B1F10;" d="M1043.647,1072.615c8.446,92.447,6.431,185.644-2.42,277.982c6.89-0.044,13.584-0.191,20.077-0.436
		c6.623-71.572,9.156-143.52,5.824-215.352c-2.397-51.686-7.644-103.783-16.667-155.147l1.347-0.274
		c13.566-2.945,27.001-6.495,40.28-10.531c-4.968,36.385-7.64,73.152-9.133,109.695c-3.688,90.276-0.498,181.118-10.098,271.057
		c7-0.4,13.749-0.909,20.247-1.518c5.547-57.141,6.415-114.844,7.251-172.174c1.04-71.362,2.185-143.452,13.183-214.073
		c62.605-22.205,120.4-57.132,166.297-105.887c27.468-29.178,52.205-64.096,66.162-101.915c6.657-18.037,10.193-37.866,5.976-56.874
		c-4.298-19.369-18.636-35.38-37.007-42.563c-19.36-7.571-40.402-5.928-59.225,2.351c-19.709,8.667-35.812,24.17-50.174,39.842
		c-28.95,31.591-51.558,68.466-69.016,107.497c-20.419,45.65-33.134,93.775-41.188,142.826
		c-15.904,5.318-32.073,9.812-48.425,13.537c-7.365-37.754-16.837-75.033-28.893-111.36c-8.739-26.332-20.227-52.616-36.769-74.957
		c-9.6-12.966-20.894-24.614-34.368-34.15c-34.528-24.437-78.465-32.068-116.507-10.939c-35.751,19.857-60.889,58.594-69.922,97.898
		c-9.655,42.007,0.81,85.217,31.786,115.803c31.789,31.388,74.82,45.539,118.658,48.736c14.768,1.077,29.716,1.146,44.691,0.545
		c25.621-1.028,51.318-4.217,76.395-8.882C1037.074,1012.933,1040.917,1042.725,1043.647,1072.615z M1171.107,782.654
		c9.775-17.752,20.846-34.799,33.267-50.814c12.279-15.831,25.792-31.5,41.488-44.048c14.658-11.716,32.204-21.038,51.452-20.224
		c15.7,0.664,29.549,8.395,34.558,23.89c5.339,16.514,1.433,34.947-4.157,50.859c-6.262,17.821-15.72,34.651-25.921,50.489
		c-43.393,67.372-110.116,117.338-184.335,146.338c2.704-14.361,5.809-28.659,9.511-42.859
		C1137.231,856.922,1151.461,818.337,1171.107,782.654z M986.775,970.974c-10.077,1.172-20.305,2.175-30.594,2.871
		c-34.639,2.346-69.983,1.064-102.736-10.235c-33.296-11.487-63.433-36.442-73.379-71.145
		c-11.025-38.466,2.647-81.626,26.004-112.791c21.737-29.002,56.365-51.502,93.934-43.841c34.137,6.962,59.34,31.513,76.535,60.486
		c2.552,4.301,4.936,8.694,7.138,13.147c9.259,18.719,15.82,38.701,21.718,58.691c6.616,22.427,12.4,45.099,17.419,67.936
		c2.073,9.438,3.979,18.911,5.782,28.403C1014.737,967.155,1000.785,969.343,986.775,970.974z"/>
	<path style="fill:#5B1F10;" d="M1235.624,1426.7c-67.625,16.538-136.679,26.642-206.169,30.24
		c-11.694,0.606-23.396,1.08-35.111,1.313c-22.979,0.457-45.966,0.182-68.93-0.763c-3.216-0.133-7.04,1.599-9.628,4.174
		c-0.436,0.435-0.837,0.885-1.192,1.363c-0.717,0.967-1.278,2.003-1.553,3.093c-1.348,5.358,3.362,7.513,7.811,7.697
		c38.394,1.581,76.83,1.092,115.15-1.259c44.228-2.714,88.3-7.935,131.949-15.78c22.965-4.128,45.788-8.995,68.452-14.539
		c4.462-1.091,10.299-5.097,9.95-10.319l-0.134-0.608c-0.428-2.489-2.25-3.901-4.489-4.527
		C1239.736,1426.227,1237.462,1426.25,1235.624,1426.7z"/>
	<path style="fill:#5B1F10;" d="M1207.536,1531.131c-41.295,13.729-83.749,23.885-126.76,30.405
		c-25.458,3.859-51.11,6.451-76.835,7.738c-19.814,0.991-39.655,1.186-59.486,0.659c-3.356-0.089-3.664,3.523-2.332,7.656
		c0.403,1.247,0.95,2.538,1.615,3.794c2.211,4.18,5.66,7.924,8.941,8.012c46.666,1.24,93.386-1.827,139.485-8.984
		c23.163-3.597,46.18-8.153,68.933-13.861c19.4-4.866,38.607-10.494,57.584-16.803c2.698-0.896,2.535-4.742,0.888-8.727
		c-1.544-3.739-4.392-7.593-7.485-9.266C1210.579,1530.94,1209.021,1530.637,1207.536,1531.131z"/>
</g>
</svg>
